<svg xmlns="http://www.w3.org/2000/svg" width="600" height="600" viewBox="0 0 600 600">
<defs><pattern id="d" width="26" height="26" patternUnits="userSpaceOnUse"><circle cx="4" cy="4" r="2.4" fill="#1d1a39" opacity=".14"/></pattern></defs>
<rect width="600" height="600" fill="#ffe0ee"/>
<rect width="600" height="600" fill="url(#d)"/>
<circle cx="300" cy="300" r="232" fill="#ffffff" stroke="#1d1a39" stroke-width="8"/>
<g>
    <path d="M210 175 A 90 70 0 0 1 390 175" fill="none" stroke="#1d1a39" stroke-width="16" stroke-linecap="round"/>
    <rect x="165" y="175" width="270" height="280" rx="34" fill="#ff8a3d" stroke="#1d1a39" stroke-width="10"/>
    <circle cx="225" cy="250" r="9" fill="#1d1a39"/><circle cx="265" cy="250" r="9" fill="#1d1a39"/><circle cx="305" cy="250" r="9" fill="#1d1a39"/><circle cx="345" cy="250" r="9" fill="#1d1a39"/><circle cx="385" cy="250" r="9" fill="#1d1a39"/><circle cx="225" cy="290" r="9" fill="#1d1a39"/><circle cx="265" cy="290" r="9" fill="#1d1a39"/><circle cx="305" cy="290" r="9" fill="#1d1a39"/><circle cx="345" cy="290" r="9" fill="#1d1a39"/><circle cx="385" cy="290" r="9" fill="#1d1a39"/><circle cx="225" cy="330" r="9" fill="#1d1a39"/><circle cx="265" cy="330" r="9" fill="#1d1a39"/><circle cx="305" cy="330" r="9" fill="#1d1a39"/><circle cx="345" cy="330" r="9" fill="#1d1a39"/><circle cx="385" cy="330" r="9" fill="#1d1a39"/><circle cx="225" cy="370" r="9" fill="#1d1a39"/><circle cx="265" cy="370" r="9" fill="#1d1a39"/><circle cx="305" cy="370" r="9" fill="#1d1a39"/><circle cx="345" cy="370" r="9" fill="#1d1a39"/><circle cx="385" cy="370" r="9" fill="#1d1a39"/><circle cx="225" cy="410" r="9" fill="#1d1a39"/><circle cx="265" cy="410" r="9" fill="#1d1a39"/><circle cx="305" cy="410" r="9" fill="#1d1a39"/><circle cx="345" cy="410" r="9" fill="#1d1a39"/><circle cx="385" cy="410" r="9" fill="#1d1a39"/>
    <circle cx="300" cy="208" r="11" fill="#ffc533" stroke="#1d1a39" stroke-width="5"/></g>

</svg>