<svg xmlns="http://www.w3.org/2000/svg" width="600" height="600" viewBox="0 0 600 600">
<defs><pattern id="d" width="26" height="26" patternUnits="userSpaceOnUse"><circle cx="4" cy="4" r="2.4" fill="#1d1a39" opacity=".14"/></pattern></defs>
<rect width="600" height="600" fill="#ffe0ee"/>
<rect width="600" height="600" fill="url(#d)"/>
<circle cx="300" cy="300" r="232" fill="#ffffff" stroke="#1d1a39" stroke-width="8"/>
<g>
    <rect x="130" y="118" width="90" height="34" rx="12" fill="#1d1a39"/>
    <rect x="160" y="148" width="26" height="80" rx="10" fill="#1d1a39" transform="rotate(-18 173 188)"/>
    <rect x="140" y="240" width="230" height="130" rx="46" fill="#4361ee" stroke="#1d1a39" stroke-width="10"/>
    <circle cx="395" cy="305" r="72" fill="#ffffff" stroke="#1d1a39" stroke-width="10"/>
    <circle cx="395" cy="305" r="38" fill="#1d1a39"/>
    <circle cx="395" cy="305" r="16" fill="#0e9f6e"/>
    <circle cx="408" cy="290" r="7" fill="#ffffff"/>
    <circle cx="185" cy="280" r="10" fill="#f72585" stroke="#1d1a39" stroke-width="5"/>
    <path d="M468 230 a 80 80 0 0 1 26 36 M488 200 a 120 120 0 0 1 36 52" fill="none" stroke="#1d1a39" stroke-width="9" stroke-linecap="round"/></g>

</svg>