<svg xmlns="http://www.w3.org/2000/svg" width="600" height="600" viewBox="0 0 600 600">
<defs><pattern id="d" width="26" height="26" patternUnits="userSpaceOnUse"><circle cx="4" cy="4" r="2.4" fill="#1d1a39" opacity=".14"/></pattern></defs>
<rect width="600" height="600" fill="#fff1cf"/>
<rect width="600" height="600" fill="url(#d)"/>
<circle cx="300" cy="300" r="232" fill="#ffffff" stroke="#1d1a39" stroke-width="8"/>
<g transform="translate(300 300) scale(1.16) translate(-300 -300)">
    <rect x="92" y="218" width="416" height="170" rx="24" fill="#4361ee" stroke="#1d1a39" stroke-width="10"/>
    <rect x="116" y="242" width="34" height="30" rx="7" fill="#ffffff" stroke="#1d1a39" stroke-width="5"/><rect x="160" y="242" width="34" height="30" rx="7" fill="#ffffff" stroke="#1d1a39" stroke-width="5"/><rect x="204" y="242" width="34" height="30" rx="7" fill="#ffffff" stroke="#1d1a39" stroke-width="5"/><rect x="248" y="242" width="34" height="30" rx="7" fill="#ffffff" stroke="#1d1a39" stroke-width="5"/><rect x="292" y="242" width="34" height="30" rx="7" fill="#ffffff" stroke="#1d1a39" stroke-width="5"/><rect x="336" y="242" width="34" height="30" rx="7" fill="#ffffff" stroke="#1d1a39" stroke-width="5"/><rect x="380" y="242" width="34" height="30" rx="7" fill="#ffffff" stroke="#1d1a39" stroke-width="5"/><rect x="424" y="242" width="34" height="30" rx="7" fill="#ffffff" stroke="#1d1a39" stroke-width="5"/><rect x="116" y="282" width="34" height="30" rx="7" fill="#ffffff" stroke="#1d1a39" stroke-width="5"/><rect x="160" y="282" width="34" height="30" rx="7" fill="#ffffff" stroke="#1d1a39" stroke-width="5"/><rect x="204" y="282" width="34" height="30" rx="7" fill="#ffffff" stroke="#1d1a39" stroke-width="5"/><rect x="248" y="282" width="34" height="30" rx="7" fill="#ffffff" stroke="#1d1a39" stroke-width="5"/><rect x="292" y="282" width="34" height="30" rx="7" fill="#ffffff" stroke="#1d1a39" stroke-width="5"/><rect x="336" y="282" width="34" height="30" rx="7" fill="#ffffff" stroke="#1d1a39" stroke-width="5"/><rect x="380" y="282" width="34" height="30" rx="7" fill="#ffffff" stroke="#1d1a39" stroke-width="5"/><rect x="424" y="282" width="34" height="30" rx="7" fill="#ffffff" stroke="#1d1a39" stroke-width="5"/>
    <rect x="160" y="322" width="240" height="30" rx="9" fill="#ffffff" stroke="#1d1a39" stroke-width="5"/>
    <rect x="424" y="322" width="34" height="30" rx="7" fill="#ffc533" stroke="#1d1a39" stroke-width="5"/></g>

</svg>