<svg xmlns="http://www.w3.org/2000/svg" width="600" height="600" viewBox="0 0 600 600">
<defs><pattern id="d" width="26" height="26" patternUnits="userSpaceOnUse"><circle cx="4" cy="4" r="2.4" fill="#1d1a39" opacity=".14"/></pattern></defs>
<rect width="600" height="600" fill="#e0e7ff"/>
<rect width="600" height="600" fill="url(#d)"/>
<circle cx="300" cy="300" r="232" fill="#ffffff" stroke="#1d1a39" stroke-width="8"/>
<g transform="translate(300 300) scale(1.16) translate(-300 -300)">
    <rect x="160" y="130" width="280" height="190" rx="16" fill="#4361ee" stroke="#1d1a39" stroke-width="10"/>
    <rect x="184" y="154" width="232" height="142" rx="8" fill="#ffffff" stroke="#1d1a39" stroke-width="6"/>
    <rect x="200" y="170" width="90" height="14" rx="7" fill="#f72585"/>
    <rect x="200" y="196" width="200" height="10" rx="5" fill="#4361ee" opacity=".6"/>
    <rect x="200" y="216" width="160" height="10" rx="5" fill="#4361ee" opacity=".35"/>
    <circle cx="382" cy="262" r="18" fill="#ffc533" stroke="#1d1a39" stroke-width="6"/>
    <path d="M130 330 H470 L505 392 Q508 404 494 404 H106 Q92 404 95 392 Z" fill="#ffffff" stroke="#1d1a39" stroke-width="10"/>
    <rect x="255" y="362" width="90" height="16" rx="8" fill="#4361ee" stroke="#1d1a39" stroke-width="5"/>
    <line x1="170" y1="352" x2="430" y2="352" stroke="#1d1a39" stroke-width="5" stroke-linecap="round" stroke-dasharray="2 16"/></g>

</svg>