<svg xmlns="http://www.w3.org/2000/svg" width="600" height="600" viewBox="0 0 600 600">
<defs><pattern id="d" width="26" height="26" patternUnits="userSpaceOnUse"><circle cx="4" cy="4" r="2.4" fill="#1d1a39" opacity=".14"/></pattern></defs>
<rect width="600" height="600" fill="#ffe0ee"/>
<rect width="600" height="600" fill="url(#d)"/>
<circle cx="300" cy="300" r="232" fill="#ffffff" stroke="#1d1a39" stroke-width="8"/>
<g transform="rotate(-5 300 300)">
    <path d="M155 320 V300 A145 145 0 0 1 445 300 V320" fill="none" stroke="#1d1a39" stroke-width="30" stroke-linecap="round"/>
    <path d="M155 320 V300 A145 145 0 0 1 445 300 V320" fill="none" stroke="#f72585" stroke-width="14" stroke-linecap="round"/>
    <rect x="115" y="300" width="80" height="130" rx="28" fill="#f72585" stroke="#1d1a39" stroke-width="10"/>
    <rect x="405" y="300" width="80" height="130" rx="28" fill="#f72585" stroke="#1d1a39" stroke-width="10"/>
    <rect x="139" y="322" width="32" height="86" rx="16" fill="#1d1a39"/>
    <rect x="429" y="322" width="32" height="86" rx="16" fill="#1d1a39"/>
    <circle cx="155" cy="430" r="10" fill="#ffc533" stroke="#1d1a39" stroke-width="5"/></g>
<path d="M470 80 l14 34 36 4 -27 25 8 36 -31 -19 -31 19 8 -36 -27 -25 36 -4 Z" fill="#ffc533" stroke="#1d1a39" stroke-width="7" stroke-linejoin="round"/>
</svg>